<svg width="40" height="40" viewBox="0 0 40 40" fill="none" xmlns="http://www.w3.org/2000/svg">
      <rect width="40" height="40" rx="20" fill="#E2E8F0"/>
      <path d="M30 23L26.914 19.914C26.5389 19.5391 26.0303 19.3284 25.5 19.3284C24.9697 19.3284 24.4611 19.5391 24.086 19.914L15 29M14 11H28C29.1046 11 30 11.8954 30 13V27C30 28.1046 29.1046 29 28 29H14C12.8954 29 12 28.1046 12 27V13C12 11.8954 12.8954 11 14 11ZM20 17C20 18.1046 19.1046 19 18 19C16.8954 19 16 18.1046 16 17C16 15.8954 16.8954 15 18 15C19.1046 15 20 15.8954 20 17Z" stroke="#475569" stroke-width="2" stroke-linecap="round" stroke-linejoin="round"/>
      </svg>