<svg width="48" height="48" viewBox="0 0 48 48" fill="none" xmlns="http://www.w3.org/2000/svg">
<rect x="0.5" y="0.5" width="47" height="47" rx="3.5" stroke="#EE473F"/>
<path d="M19 22V34M27 17.88L26 22H31.83C32.1405 22 32.4467 22.0723 32.7244 22.2111C33.0021 22.35 33.2437 22.5516 33.43 22.8C33.6163 23.0484 33.7422 23.3367 33.7977 23.6422C33.8533 23.9477 33.8369 24.2619 33.75 24.56L31.42 32.56C31.2988 32.9754 31.0462 33.3404 30.7 33.6C30.3538 33.8596 29.9327 34 29.5 34H16C15.4696 34 14.9609 33.7893 14.5858 33.4142C14.2107 33.0391 14 32.5304 14 32V24C14 23.4696 14.2107 22.9609 14.5858 22.5858C14.9609 22.2107 15.4696 22 16 22H18.76C19.1321 21.9998 19.4967 21.8958 19.813 21.6997C20.1292 21.5036 20.3844 21.2232 20.55 20.89L24 14C24.4716 14.0058 24.9357 14.1182 25.3578 14.3286C25.7799 14.539 26.1489 14.8421 26.4374 15.2152C26.7259 15.5883 26.9263 16.0218 27.0237 16.4832C27.1212 16.9446 27.113 17.4221 27 17.88Z" stroke="#EE473F" stroke-width="2" stroke-linecap="round" stroke-linejoin="round"/>
</svg>
