<svg xmlns="http://www.w3.org/2000/svg" xmlns:xlink="http://www.w3.org/1999/xlink" width="320" height="328" viewBox="0 0 320 328">
  <defs>
    <clipPath id="clip-Artboard_1">
      <rect width="320" height="328"/>
    </clipPath>
  </defs>
  <g id="Artboard_1" data-name="Artboard – 1" clip-path="url(#clip-Artboard_1)">
    <g id="Doctors-bro" transform="translate(-25.576 -36.964)">
      <g id="freepik--background-simple--inject-3" transform="translate(25.576 49.73)">
        <path id="Path_838" data-name="Path 838" d="M122.411,67.777s-52.553,26.78-78.764,68.041a113.846,113.846,0,0,0,7.713,133.71c31.85,39.382,92.726,34.243,143.7,59.212s107.208,19.823,131.311-33.057-12.242-72.668-18.484-133.849S246.48,11.076,122.411,67.777Z" transform="translate(-25.576 -49.73)" fill="#5a8af7"/>
        <path id="Path_839" data-name="Path 839" d="M122.411,67.777s-52.553,26.78-78.764,68.041a113.846,113.846,0,0,0,7.713,133.71c31.85,39.382,92.726,34.243,143.7,59.212s107.208,19.823,131.311-33.057-12.242-72.668-18.484-133.849S246.48,11.076,122.411,67.777Z" transform="translate(-25.576 -49.73)" fill="#fff" opacity="0.7"/>
      </g>
      <g id="freepik--character-3--inject-3" transform="translate(228.947 86.399)">
        <ellipse id="Ellipse_3" data-name="Ellipse 3" cx="36.296" cy="8.184" rx="36.296" ry="8.184" transform="translate(1.928 236.377)" fill="#263238" stroke="#263238" stroke-linecap="round" stroke-linejoin="round" stroke-width="1"/>
        <path id="Path_840" data-name="Path 840" d="M329.028,188.48s-4.911,3-4.855,4.321-1.831,25.351-2.046,28.354-3.073,9.2-3.295,12.02a12.681,12.681,0,0,0,1.311,6.936c.825,1.3,3.856,5.445,3.856,5.445l8.15-12.589a71.936,71.936,0,0,0,.125-8.261C332.149,218.707,329.028,188.48,329.028,188.48Z" transform="translate(-318.79 -128.913)" fill="#fff" stroke="#263238" stroke-linecap="round" stroke-linejoin="round" stroke-width="1"/>
        <path id="Path_841" data-name="Path 841" d="M366.532,102.613s-8.67-.555-13.608,5.459-3.877,15.21-3.912,18.033-8.42,11.1-7.491,14.468,3.4,3.752,2.608,6.568-5.951,4.508-5.2,8.08a41.713,41.713,0,0,0,3.468,8.635l49.939.34s1.783-5.257-.118-9.2-4.6-5.251-4.162-7.13,2.851-6.388,1.921-9.766-4.162-4.314-4.5-10.328-1.228-15.953-6-20.808S366.532,102.613,366.532,102.613Z" transform="translate(-324.938 -102.598)" fill="#263238" stroke="#263238" stroke-linecap="round" stroke-linejoin="round" stroke-width="1"/>
        <path id="Path_842" data-name="Path 842" d="M351.438,436.549a44.394,44.394,0,0,1-5.549,8.268c-3.19,3.572-6.284,5.452-6.18,7.331s7.068,2.247,10.751.929,6.36-3.947,7.1-4.162,2.816,0,2.865-2.636-.354-10.14-.354-10.14Z" transform="translate(-325.199 -204.798)" fill="#fff" stroke="#263238" stroke-linecap="round" stroke-linejoin="round" stroke-width="1"/>
        <path id="Path_843" data-name="Path 843" d="M350.443,454.366c3.69-1.318,6.36-3.947,7.1-4.162s2.816,0,2.865-2.636c0-1.387-.076-4.162-.173-6.43a6.555,6.555,0,0,1-5.618,3.468s-.069-1.318-2.081-3.565c-1.3-1.47-2.608-.312-3.371.694l-.617.929-.049.09h0a33.288,33.288,0,0,1-2.622,3.378c-3.191,3.572-6.284,5.452-6.18,7.331S346.76,455.684,350.443,454.366Z" transform="translate(-325.196 -206.087)" fill="#fff" stroke="#263238" stroke-linecap="round" stroke-linejoin="round" stroke-width="1"/>
        <path id="Path_844" data-name="Path 844" d="M389.831,436.548a51.515,51.515,0,0,0,6.45,8.261c3.572,3.565,6.867,5.438,6.936,7.317s-6.825,2.254-10.654.943-6.783-3.94-7.539-4.127-2.823,0-3.149-2.622-.735-10.14-.735-10.14Z" transform="translate(-337.895 -204.811)" fill="#fff" stroke="#263238" stroke-linecap="round" stroke-linejoin="round" stroke-width="1"/>
        <path id="Path_845" data-name="Path 845" d="M392.7,454.334c-3.822-1.311-6.783-3.94-7.539-4.127s-2.823,0-3.149-2.622c-.173-1.387-.368-4.161-.513-6.436a7.352,7.352,0,0,0,5.986,3.426s-.069-1.318,1.685-3.572c1.144-1.463,2.58-.312,3.468.694.229.305.465.61.694.929l.062.09h0a41.461,41.461,0,0,0,2.982,3.378c3.572,3.565,6.867,5.438,6.936,7.317S396.53,455.645,392.7,454.334Z" transform="translate(-338.005 -206.076)" fill="#fff" stroke="#263238" stroke-linecap="round" stroke-linejoin="round" stroke-width="1"/>
        <path id="Path_846" data-name="Path 846" d="M334.87,293.135s1.158,39.056,2.7,46.755,8.413,51.825,8.413,51.825a16.514,16.514,0,0,0,6.645,1.3h7.512l.694-32.862.257-47.7,3.766,80.741s10.348.368,11.465.18,2.046-.375,2.046-.375l6.652-51.083,3.808-33.986.208-13.518s-31.794-1.1-41.033-1.852-13.039-.936-13.039-.936Z" transform="translate(-323.717 -160.519)" fill="#5a8af7" stroke="#263238" stroke-linecap="round" stroke-linejoin="round" stroke-width="1"/>
        <path id="Path_847" data-name="Path 847" d="M396.654,393.22c-.083.652-.166,1.255-.264,1.81" transform="translate(-342.568 -191.647)" fill="none" stroke="#263238" stroke-linecap="round" stroke-linejoin="round" stroke-width="1"/>
        <path id="Path_848" data-name="Path 848" d="M397.786,325.43s.645,27.827-.486,42.933" transform="translate(-342.846 -170.876)" fill="none" stroke="#263238" stroke-linecap="round" stroke-linejoin="round" stroke-width="1"/>
        <path id="Path_849" data-name="Path 849" d="M348.85,322.21s.8,18.408,1.588,22.535" transform="translate(-328.001 -169.889)" fill="none" stroke="#263238" stroke-linecap="round" stroke-linejoin="round" stroke-width="1"/>
        <path id="Path_850" data-name="Path 850" d="M391.58,305.3v14.052a30.4,30.4,0,0,0,5.5.95c2.851.187,8.17,0,8.17,0l.382-5.32Z" transform="translate(-341.094 -164.708)" fill="#263238" stroke="#263238" stroke-linecap="round" stroke-linejoin="round" stroke-width="1"/>
        <path id="Path_851" data-name="Path 851" d="M335.551,319.895s7.22,2.282,10.258,2.469,5.882.569,5.882.569l-.375-3.794L335.17,317.62Z" transform="translate(-323.809 -168.483)" fill="#263238" stroke="#263238" stroke-linecap="round" stroke-linejoin="round" stroke-width="1"/>
        <path id="Path_852" data-name="Path 852" d="M357.873,167.07l-5.667,6.388L336.49,184.923l3.35,69.491a159.758,159.758,0,0,0,23.277,4.307c10.751.936,24.574-1.526,24.574-1.526l-2.032-72.827s-6.117-9.017-9.253-11.451-4.571-4.689-8.725-5.063S357.873,167.07,357.873,167.07Z" transform="translate(-324.214 -122.353)" fill="#5a8af7" stroke="#263238" stroke-linecap="round" stroke-linejoin="round" stroke-width="1"/>
        <path id="Path_853" data-name="Path 853" d="M348.041,170.526l-16.847,11.465,2.643,42.247-.895,4.245-7.082,8.157,3.017,14.33-1.346,20.218A72.667,72.667,0,0,0,338.761,274a98.783,98.783,0,0,0,10.168.562l.583-27.6s2.24-45.826,2.5-47.858,2.6-31.905,2.6-31.905Z" transform="translate(-320.957 -122.39)" fill="#fff" stroke="#263238" stroke-linecap="round" stroke-linejoin="round" stroke-width="1"/>
        <path id="Path_854" data-name="Path 854" d="M354.627,174.49l-8.157,20.454,8.8,3.655-8.309,1.512,7.359,28.833" transform="translate(-327.272 -124.627)" fill="none" stroke="#263238" stroke-linecap="round" stroke-linejoin="round" stroke-width="1"/>
        <path id="Path_855" data-name="Path 855" d="M365.28,159.22s2.927,19.525,5.23,24.033,2.955,6.007,2.955,6.007,5.008-15.217,6.013-17.472,2.081-10.328,2.081-10.328S371.578,164.658,365.28,159.22Z" transform="translate(-333.035 -119.948)" fill="#fff" stroke="#263238" stroke-linecap="round" stroke-linejoin="round" stroke-width="1"/>
        <path id="Path_856" data-name="Path 856" d="M365.28,159.22s.264,1.776.694,4.377c1.463,1.117,5.341,3.877,8.205,4.023,2.185.111,4.959-1.3,6.8-2.435.333-2.046.562-3.725.562-3.725S371.578,164.658,365.28,159.22Z" transform="translate(-333.035 -119.948)" fill="#263238" stroke="#263238" stroke-linecap="round" stroke-linejoin="round" stroke-width="1"/>
        <path id="Path_857" data-name="Path 857" d="M357.937,139.2s-2-2.844-3.343,0,2.081,7.054,3.038,7.63c2.719,1.616,2-1.387,2-1.387Z" transform="translate(-329.666 -113.427)" fill="#fff" stroke="#263238" stroke-linecap="round" stroke-linejoin="round" stroke-width="1"/>
        <path id="Path_858" data-name="Path 858" d="M394.862,140.93s1.685-2.941,3.336-.166-1.325,7.137-2.213,7.754c-2.539,1.755-2.136-1.255-2.136-1.255Z" transform="translate(-341.782 -113.927)" fill="#fff" stroke="#263238" stroke-linecap="round" stroke-linejoin="round" stroke-width="1"/>
        <path id="Path_859" data-name="Path 859" d="M358.87,132.132s7.241-1.692,10.889-3.849a19.989,19.989,0,0,0,5.736-5.223s3.135,5.923,5.9,8.323,3.336,2.539,3.336,2.539S383.4,144.291,381.9,147.9s-6.388,7.116-10.952,6.1c-2.594-.569-7.089-2.441-8.392-5.6S358.87,132.132,358.87,132.132Z" transform="translate(-331.071 -108.868)" fill="#fff" stroke="#263238" stroke-linecap="round" stroke-linejoin="round" stroke-width="1"/>
        <path id="Path_860" data-name="Path 860" d="M377.556,145.219c-2.247.055-9.773.069-13.657-2.275a25.785,25.785,0,0,1-4.349-3.184c.139.694.305,1.561.486,2.462l.846.617L363,150.857l-.992.215a24.012,24.012,0,0,0,.756,2.421c1.3,3.156,5.8,5.029,8.392,5.6,4.557,1.006,9.433-2.483,10.945-6.083a3.419,3.419,0,0,1-.3-2.268c.437-2.268.978-6.242.978-6.242l1.547-1.387c.083-.506.153-.992.222-1.436C382.681,142.971,379.172,145.177,377.556,145.219Z" transform="translate(-331.28 -113.985)" fill="#5a8af7" stroke="#263238" stroke-linecap="round" stroke-linejoin="round" stroke-width="1"/>
        <path id="Path_861" data-name="Path 861" d="M371.127,141.613s-2.421-2.941-5.6-2.67" transform="translate(-333.112 -113.729)" fill="none" stroke="#263238" stroke-linecap="round" stroke-linejoin="round" stroke-width="1"/>
        <path id="Path_862" data-name="Path 862" d="M382.59,142.7a6.86,6.86,0,0,1,6.1-2.039" transform="translate(-338.339 -114.232)" fill="none" stroke="#263238" stroke-linecap="round" stroke-linejoin="round" stroke-width="1"/>
        <path id="Path_863" data-name="Path 863" d="M363.52,136.428a13.122,13.122,0,0,1,6.541-.735" transform="translate(-332.496 -112.685)" fill="none" stroke="#263238" stroke-linecap="round" stroke-linejoin="round" stroke-width="1"/>
        <path id="Path_864" data-name="Path 864" d="M383,136.618a5,5,0,0,1,5.681.791" transform="translate(-338.465 -112.854)" fill="none" stroke="#263238" stroke-linecap="round" stroke-linejoin="round" stroke-width="1"/>
        <path id="Path_865" data-name="Path 865" d="M369.592,141.015a.818.818,0,0,1-.694.929.86.86,0,0,1-.763-.895.811.811,0,0,1,.694-.929.867.867,0,0,1,.763.895Z" transform="translate(-333.907 -114.095)" fill="#263238"/>
        <path id="Path_866" data-name="Path 866" d="M387.7,142.318a.8.8,0,0,1-.694.929.853.853,0,0,1-.763-.888.8.8,0,0,1,.694-.929A.853.853,0,0,1,387.7,142.318Z" transform="translate(-339.455 -114.497)" fill="#263238"/>
        <path id="Path_867" data-name="Path 867" d="M415.28,182.74s4.044,1.873,5.549,4.855,13.539,35.3,13.483,37.738-4.037,5.257-7.768,5.639-9.169-6.381-9.981-7.5-.957-14.274-.957-14.274Z" transform="translate(-348.356 -127.154)" fill="#fff" stroke="#263238" stroke-linecap="round" stroke-linejoin="round" stroke-width="1"/>
        <path id="Path_868" data-name="Path 868" d="M387.8,170.3l1.97,64.6.694,40.748A51.778,51.778,0,0,0,402,277.141a24.567,24.567,0,0,0,9.488-1.692s-1.179-25.351-1.387-29.485-1.581-12.02-1.581-12.02l-1.637-55.016S391.642,171.8,387.8,170.3Z" transform="translate(-339.936 -123.343)" fill="#fff" stroke="#263238" stroke-linecap="round" stroke-linejoin="round" stroke-width="1"/>
        <path id="Path_869" data-name="Path 869" d="M393.636,175.44l6.984,22.784-6.367,1.727,6.194,3L392.72,227.5" transform="translate(-341.443 -124.918)" fill="#fff" stroke="#263238" stroke-linecap="round" stroke-linejoin="round" stroke-width="1"/>
        <path id="Path_870" data-name="Path 870" d="M397.233,205.49l-8.663,41.5a50.426,50.426,0,0,0,10.251,2.081c4.328.208,13.345.18,13.345.18l9.017-38.688S403.434,208.868,397.233,205.49Z" transform="translate(-340.172 -134.125)" fill="#263238" stroke="#263238" stroke-linecap="round" stroke-linejoin="round" stroke-width="1"/>
        <path id="Path_871" data-name="Path 871" d="M405.41,255.53l.284-12.97,6.873,1.45S408.025,254.018,405.41,255.53Z" transform="translate(-345.331 -145.484)" fill="#fff" stroke="#263238" stroke-linecap="round" stroke-linejoin="round" stroke-width="1"/>
        <path id="Path_872" data-name="Path 872" d="M406.6,233.315s-1.831-2.622-2.421-3.191a14.9,14.9,0,0,0-4.064-2.247c-.562,0-3.579-.187-4.162-.187s-1.242,1.318-.645,1.88a6.567,6.567,0,0,0,2.67.749l1.422,2.081-6.416-.562s-1.068,1.131-.825,2.081a12.781,12.781,0,0,0,.694,1.88,29.66,29.66,0,0,0,.215,4.127c.25,1.131,1.387,1.505,2.948,2.441s6.783.375,6.783.375h2.414Z" transform="translate(-341.262 -140.927)" fill="#fff" stroke="#263238" stroke-linecap="round" stroke-linejoin="round" stroke-width="1"/>
        <path id="Path_873" data-name="Path 873" d="M426.315,236.69l-16.646-2.24s-1.3,10.709-2.608,14.274-1.651,4.321-1.651,4.321,17.444-.388,21.557-.763,6.423-2.823,6.242-6.2a16.956,16.956,0,0,0-2.24-6.763" transform="translate(-345.331 -142.999)" fill="#fff" stroke="#263238" stroke-linecap="round" stroke-linejoin="round" stroke-width="1"/>
        <path id="Path_874" data-name="Path 874" d="M332.106,254.54s3.884,2.435,4.855,3.19,1.054,5.632,1.672,6.568-.111,1.505-1.235,1.505-2.823-3.565-2.823-3.565l-.069-1.318-7.935,2.636-2.081-3.565S326.848,254.54,332.106,254.54Z" transform="translate(-320.537 -149.155)" fill="#fff" stroke="#263238" stroke-linecap="round" stroke-linejoin="round" stroke-width="1"/>
      </g>
      <g id="freepik--character-2--inject-3" transform="translate(136.359 67.085)">
        <ellipse id="Ellipse_4" data-name="Ellipse 4" cx="36.296" cy="8.184" rx="36.296" ry="8.184" transform="translate(10.057 255.691)" fill="#263238" stroke="#263238" stroke-linecap="round" stroke-linejoin="round" stroke-width="1"/>
        <path id="Path_875" data-name="Path 875" d="M291.886,174.79s4.758,23.88,5.6,28.3,2.4,14.919,4.162,19.525,1.186,10.5.305,12.159a27.455,27.455,0,0,1-3.031,4.051l-5.909-7.706s-3.516-37.759-3.648-43.107S291.886,174.79,291.886,174.79Z" transform="translate(-217.186 -105.405)" fill="#fff" stroke="#263238" stroke-linecap="round" stroke-linejoin="round" stroke-width="1"/>
        <path id="Path_876" data-name="Path 876" d="M297.347,254.64s3.745,2.337,4.4,3.329a3.489,3.489,0,0,1,.617,3.329,31.543,31.543,0,0,1-4.016,4.952c-.707.631-1.3-1.887-1.387-4.051S297.347,254.64,297.347,254.64Z" transform="translate(-219.512 -129.871)" fill="#fff" stroke="#263238" stroke-linecap="round" stroke-linejoin="round" stroke-width="1"/>
        <path id="Path_877" data-name="Path 877" d="M261.526,442.793s11.742,5.708,12.485,6.818-1.935,2.587-8.933,2.587-7.206-.923-9.988-1.658-8.323-.187-9.072-1.845.555-7.366.555-7.366Z" transform="translate(-203.833 -187.075)" fill="#fff" stroke="#263238" stroke-linecap="round" stroke-linejoin="round" stroke-width="1"/>
        <path id="Path_878" data-name="Path 878" d="M239.477,446.283s9.71,5.9,8.857,7.921-7.872,2.025-11.569,1.47-11.555-5.549-11.971-7.366.624-4.605,6.319-5.153A9.3,9.3,0,0,1,239.477,446.283Z" transform="translate(-197.376 -187.617)" fill="#fff" stroke="#263238" stroke-linecap="round" stroke-linejoin="round" stroke-width="1"/>
        <path id="Path_879" data-name="Path 879" d="M275.168,305.865s-5.549,42.732-6.513,49-4.023,16.209-5.674,23.762a125.907,125.907,0,0,0-2.081,13.449,12.611,12.611,0,0,0,.09,3.863c.236,1.845.271,3.315.271,3.315a50.305,50.305,0,0,1-7.519,1.29c-3.128.187-7.366.187-7.366.187l-1.387-11.971s1.033-17.687,1.644-22.84,1.262-45.68,1.235-46.79-.271-10.869-.271-10.869l18.9-2.025s2.58-7.366,6.457-7S275.168,305.865,275.168,305.865Z" transform="translate(-203.589 -143.531)" fill="#fff" stroke="#263238" stroke-linecap="round" stroke-linejoin="round" stroke-width="1"/>
        <path id="Path_880" data-name="Path 880" d="M274.138,299.234c-3.877-.368-6.457,7-6.457,7l-18.921,2.025s.062,2.594.125,5.257c2.018.18,3.884.284,5.479.284a166.772,166.772,0,0,0,18.144-1.02l.811-8.49,1.269,8.649.874-.284c.541-4.12.888-6.8.888-6.8S278.016,299.6,274.138,299.234Z" transform="translate(-204.745 -143.531)" fill="#263238" stroke="#263238" stroke-linecap="round" stroke-linejoin="round" stroke-width="1"/>
        <path id="Path_881" data-name="Path 881" d="M220.3,310.66s0,.264.042.742c.257,5.035,1.783,34.215,2.247,39.6.52,5.9-2.081,12.339-1.949,17.68s1.387,34.263,1.387,34.263l1.387,4.786s3.26-2.206,6.388-2.206,8.323.18,8.323.18.271-3.87.243-5.153-.146-5.9-.146-5.9,5.292-24.13,5.611-26.155,4.425-37.024,4.4-38.147.867-16.764.867-16.764Z" transform="translate(-196.024 -147.036)" fill="#fff" stroke="#263238" stroke-linecap="round" stroke-linejoin="round" stroke-width="1"/>
        <path id="Path_882" data-name="Path 882" d="M248.9,317.27c.118-2.136.2-3.662.2-3.662l-28.8-2.948s0,.264.042.742c0,.61.076,1.574.146,2.774,6.735,1.207,18.422,3.107,25.157,3.107C246.754,317.3,247.836,317.291,248.9,317.27Z" transform="translate(-196.024 -147.036)" fill="#263238" stroke="#263238" stroke-linecap="round" stroke-linejoin="round" stroke-width="1"/>
        <path id="Path_883" data-name="Path 883" d="M239.046,147.155s-3.045.513-4.2,1.873a30.517,30.517,0,0,0-3.121,4.245c-.16.513-18.068,11.382-18.068,11.382l1.29,51.825s.534,7.983-.416,10.7a54.792,54.792,0,0,0-2.31,16.487c.166,6.624.6,17.34.6,17.34s20.5,4.078,30.352,4.078a166.78,166.78,0,0,0,18.144-1.033l.811-8.5,1.235,8.67,4.21-1.387,3.468-25.663s2.414-5.438,2.386-6.631.61-2.719-.09-3.738-1.949-3.059-1.949-3.059-3.135-56.2-3.135-57.735-9.273-10.529-9.96-10.869-4.918-6.631-10.4-8.323S239.046,147.155,239.046,147.155Z" transform="translate(-193.546 -96.628)" fill="#fff" stroke="#263238" stroke-linecap="round" stroke-linejoin="round" stroke-width="1"/>
        <path id="Path_884" data-name="Path 884" d="M241.943,158.87l-2.053,18.665,8.434,3.919-2.109,6.333,21.092,37.065" transform="translate(-202.027 -100.527)" fill="none" stroke="#263238" stroke-linecap="round" stroke-linejoin="round" stroke-width="1"/>
        <path id="Path_885" data-name="Path 885" d="M276.82,161.89l6.326,14.767-2.712,3.614,4.522,6.326-1.81,40.686" transform="translate(-213.342 -101.452)" fill="none" stroke="#263238" stroke-linecap="round" stroke-linejoin="round" stroke-width="1"/>
        <path id="Path_886" data-name="Path 886" d="M249.77,149.852a39.214,39.214,0,0,0,1.963,10.7c1.824,5.1,13.913,40.27,13.913,40.27l7.817,27.522s-1.033-28.035-1.061-29.221-5.923-40.1-5.923-40.1-1.006-6.284-2.594-8.663S251.65,143.561,249.77,149.852Z" transform="translate(-205.054 -96.773)" fill="#5a8af7" stroke="#263238" stroke-linecap="round" stroke-linejoin="round" stroke-width="1"/>
        <path id="Path_887" data-name="Path 887" d="M246.855,147.36s-4.918.506-4.051,7.983,2.011,12.575,2.011,12.575" transform="translate(-202.889 -97)" fill="none" stroke="#263238" stroke-linecap="round" stroke-linejoin="round" stroke-width="2"/>
        <path id="Path_888" data-name="Path 888" d="M244.88,191.21s2.081,8.663,3.5,11.042,5.722,4.758,8.781,4.758" transform="translate(-203.556 -110.436)" fill="none" stroke="#263238" stroke-linecap="round" stroke-linejoin="round" stroke-width="1"/>
        <path id="Path_889" data-name="Path 889" d="M254.213,188.27s2.289,10.022,2.67,11.9-.881,5.431-3,9.017" transform="translate(-206.313 -109.535)" fill="none" stroke="#263238" stroke-linecap="round" stroke-linejoin="round" stroke-width="1"/>
        <path id="Path_890" data-name="Path 890" d="M252.784,219.164h0a.943.943,0,0,1-.375-1.276l.243-.444a.915.915,0,0,1,1.262-.34h0a.95.95,0,0,1,.381,1.276l-.243.437a.922.922,0,0,1-1.269.347Z" transform="translate(-205.828 -118.331)" fill="#263238"/>
        <path id="Path_891" data-name="Path 891" d="M263.179,213.837h0a.909.909,0,0,1-.943.909h-.506a.95.95,0,0,1-.929-.957h0a.9.9,0,0,1,.936-.909h.506a.964.964,0,0,1,.936.957Z" transform="translate(-208.434 -117.075)" fill="#263238"/>
        <path id="Path_892" data-name="Path 892" d="M244.366,187.359l-1.165-7.387a3.038,3.038,0,0,1,2.3-3.468h0a3.211,3.211,0,0,1,3.815,2.3l1.991,7.352" transform="translate(-203.028 -105.905)" fill="none" stroke="#263238" stroke-linecap="round" stroke-linejoin="round" stroke-width="2"/>
        <ellipse id="Ellipse_5" data-name="Ellipse 5" cx="3.038" cy="3.503" rx="3.038" ry="3.503" transform="matrix(0.995, -0.1, 0.1, 0.995, 65.034, 79.778)" fill="#fff" stroke="#263238" stroke-linecap="round" stroke-linejoin="round" stroke-width="1"/>
        <path id="Path_893" data-name="Path 893" d="M272.13,151.85s6.679,9.4,8.809,28.555" transform="translate(-211.905 -98.376)" fill="none" stroke="#263238" stroke-linecap="round" stroke-linejoin="round" stroke-width="2"/>
        <ellipse id="Ellipse_6" data-name="Ellipse 6" cx="1.658" cy="1.935" rx="1.658" ry="1.935" transform="matrix(0.996, -0.093, 0.093, 0.996, 67.202, 80.548)" fill="#fff" stroke="#263238" stroke-linecap="round" stroke-linejoin="round" stroke-width="1"/>
        <path id="Path_894" data-name="Path 894" d="M297.674,255.793a34.525,34.525,0,0,0-1.006,3.87c0,.555-.132,2.213-1.429,1.838s-.909-7-.742-7.734,3.322,1.644,3.322,1.644" transform="translate(-218.702 -129.561)" fill="#fff" stroke="#263238" stroke-linecap="round" stroke-linejoin="round" stroke-width="1"/>
        <path id="Path_895" data-name="Path 895" d="M237.4,248.29a8.248,8.248,0,0,0,3.759,1.02c2.039,0,5.764-.694,7.13-.34s4.855,4.751,4.855,4.751,1.04,1.02.548,1.533-1.5,1.387-2.192.846-4.162-3.4-4.162-3.4l-8.746,3.572L235,254.4Z" transform="translate(-200.528 -127.926)" fill="#fff" stroke="#263238" stroke-linecap="round" stroke-linejoin="round" stroke-width="1"/>
        <path id="Path_896" data-name="Path 896" d="M208.778,171.12s-5.764.694-6.742,2.206S185.265,209.517,185.3,211.05s31.579,26.356,31.579,26.356l6.811-12.963-17.042-15.8,7.394-17.159" transform="translate(-185.3 -104.28)" fill="#fff" stroke="#263238" stroke-linecap="round" stroke-linejoin="round" stroke-width="1"/>
        <path id="Path_897" data-name="Path 897" d="M234.48,271.292l16.66.34-.083-10.362" transform="translate(-200.369 -131.903)" fill="none" stroke="#263238" stroke-linecap="round" stroke-linejoin="round" stroke-width="1"/>
        <line id="Line_37" data-name="Line 37" x1="4.404" y2="1.644" transform="translate(33.681 128.348)" fill="none" stroke="#263238" stroke-linecap="round" stroke-linejoin="round" stroke-width="1"/>
        <path id="Path_898" data-name="Path 898" d="M247.435,136.3s1.893,14.787,3.142,16.993S260.7,164.331,260.7,164.331s2.774-10.189,3.086-12.568.555-11.9.555-11.9L247.4,135.11Z" transform="translate(-204.328 -93.246)" fill="#fff" stroke="#263238" stroke-linecap="round" stroke-linejoin="round" stroke-width="1"/>
        <path id="Path_899" data-name="Path 899" d="M247.435,136.3s.222,1.734.562,4.1a17.013,17.013,0,0,0,4.494,3.01c2.185.964,8.011,1.505,11.694,1.075.1-2.49.16-4.612.16-4.612L247.4,135.11Z" transform="translate(-204.328 -93.246)" fill="#263238" stroke="#263238" stroke-linecap="round" stroke-linejoin="round" stroke-width="1"/>
        <path id="Path_900" data-name="Path 900" d="M238.747,108.875s-2.268-2.379-3.392.333,1.387,6.8,2.726,6.971a5.91,5.91,0,0,0,2.372-.173s.95,3.912,1.824,5.1a17.812,17.812,0,0,0,6.437,5.091c3.093,1.387,13.449,1.88,14.76,0s1.235-11.9,1.214-12.741-.166-12.956-.166-12.956.929-4.2-.333-7.1-13.934-6.936-17.118-5.264-6.853,4.585-7.1,8.323-.1,9.856-.1,9.856Z" transform="translate(-200.551 -78.733)" fill="#fff" stroke="#263238" stroke-linecap="round" stroke-linejoin="round" stroke-width="1"/>
        <path id="Path_901" data-name="Path 901" d="M265.849,110.61s2.115,9.71,1.63,10.876-2,1.186-3.9.166-.909-2.379-.909-2.379" transform="translate(-208.926 -85.739)" fill="none" stroke="#263238" stroke-linecap="round" stroke-linejoin="round" stroke-width="1"/>
        <path id="Path_902" data-name="Path 902" d="M256.75,126.78s.916,2.545,2.615,2.719,5.965.506,5.965.506" transform="translate(-207.193 -90.694)" fill="none" stroke="#263238" stroke-linecap="round" stroke-linejoin="round" stroke-width="1"/>
        <path id="Path_903" data-name="Path 903" d="M248,110.5l.27,4.078a11.545,11.545,0,0,0,5.119.853c3.565,0,4.737-.853,4.737-.853l-.1-4.078S252.855,107.441,248,110.5Z" transform="translate(-204.512 -85.289)" fill="none" stroke="#263238" stroke-linecap="round" stroke-linejoin="round" stroke-width="1"/>
        <path id="Path_904" data-name="Path 904" d="M267.39,110.5l1.29,4.252s.527.694,4.1.694,4.744-.853,4.744-.853l-.1-4.078S272.238,107.442,267.39,110.5Z" transform="translate(-210.453 -85.29)" fill="none" stroke="#263238" stroke-linecap="round" stroke-linejoin="round" stroke-width="1"/>
        <line id="Line_38" data-name="Line 38" x2="3.399" transform="translate(53.538 25.211)" fill="none" stroke="#263238" stroke-linecap="round" stroke-linejoin="round" stroke-width="1"/>
        <line id="Line_39" data-name="Line 39" x1="6.7" y2="3.912" transform="translate(36.809 25.211)" fill="none" stroke="#263238" stroke-linecap="round" stroke-linejoin="round" stroke-width="1"/>
        <path id="Path_905" data-name="Path 905" d="M250.41,107.711s1.817-2.039,5.937-.34" transform="translate(-205.25 -84.54)" fill="none" stroke="#263238" stroke-linecap="round" stroke-linejoin="round" stroke-width="1"/>
        <path id="Path_906" data-name="Path 906" d="M268.29,107.755a4.162,4.162,0,0,1,4.4-.506" transform="translate(-210.729 -84.584)" fill="none" stroke="#263238" stroke-linecap="round" stroke-linejoin="round" stroke-width="1"/>
        <path id="Path_907" data-name="Path 907" d="M256.079,113.187c0,.749-.27,1.387-.645,1.387s-.694-.61-.694-1.387.271-1.387.652-1.387S256.065,112.431,256.079,113.187Z" transform="translate(-206.577 -86.104)" fill="#263238"/>
        <path id="Path_908" data-name="Path 908" d="M271.759,112.937c0,.749-.271,1.387-.645,1.387s-.694-.61-.694-1.387.271-1.387.645-1.387S271.738,112.188,271.759,112.937Z" transform="translate(-211.381 -86.027)" fill="#263238"/>
        <path id="Path_909" data-name="Path 909" d="M248.536,85.945s1.637,3.614-.4,4.931a4.12,4.12,0,0,1-4.127,0,4.564,4.564,0,0,1,.132,5.16,28.655,28.655,0,0,1-3.468,4.64s.368,4.39-.4,4.9-2.844-.257-2.878-1.547-.867-3.87-.9-5.16-.631-4.647-.631-4.647-5.216-2.324-2.448-5.16,8.642-5.16,8.642-5.16.132-5.16,3.7-6.707,11.257-3.87,11.319-1.29a7.921,7.921,0,0,1-.694,3.87s6.443-.257,10.938,4.162,4.342,8.517,2.018,8.517a6.06,6.06,0,0,0-3.08.513s4.446,2.58,2.157,3.87a4.793,4.793,0,0,1-4.647-.257s.985-1.8-1.914-4.162S248.536,85.945,248.536,85.945Z" transform="translate(-199.797 -74.752)" fill="#263238" stroke="#263238" stroke-linecap="round" stroke-linejoin="round" stroke-width="1"/>
      </g>
      <g id="freepik--character-1--inject-3" transform="translate(53.69 78.432)">
        <ellipse id="Ellipse_7" data-name="Ellipse 7" cx="36.296" cy="8.184" rx="36.296" ry="8.184" transform="translate(7.102 244.344)" fill="#263238" stroke="#263238" stroke-linecap="round" stroke-linejoin="round" stroke-width="1"/>
        <path id="Path_910" data-name="Path 910" d="M163.14,210.6v6.631l9.641,4.418s1.006-4.418.2-12.256Z" transform="translate(-95.841 -127.353)" fill="#999" stroke="#263238" stroke-linecap="round" stroke-linejoin="round" stroke-width="1"/>
        <path id="Path_911" data-name="Path 911" d="M90.33,439.737a69.105,69.105,0,0,0-6.242,6.083c-2.774,3.128-3.315,6.242-.735,7.734s6.631,1.1,11.049-1.658,4.238-3.87,6.818-4.786a5.761,5.761,0,0,0,4.238-5.715c0-2.941-9.4-3.315-11.423-3.468S90.33,439.737,90.33,439.737Z" transform="translate(-70.882 -197.376)" fill="#fff" stroke="#263238" stroke-linecap="round" stroke-linejoin="round" stroke-width="1"/>
        <path id="Path_912" data-name="Path 912" d="M105.432,442.93a34.163,34.163,0,0,0-6.18,3.523c-2.018,1.678-6.041,7.72-10.744,7.72a13.963,13.963,0,0,1-6.839-1.783,3.052,3.052,0,0,0,1.658,2.7c2.58,1.47,6.631,1.1,11.049-1.658s4.238-3.87,6.818-4.786A5.755,5.755,0,0,0,105.432,442.93Z" transform="translate(-70.878 -198.912)" fill="none" stroke="#263238" stroke-linecap="round" stroke-linejoin="round" stroke-width="1"/>
        <path id="Path_913" data-name="Path 913" d="M154.857,439.737a69.1,69.1,0,0,1,6.242,6.083c2.774,3.128,3.315,6.242.735,7.734s-6.631,1.1-11.049-1.658-4.238-3.87-6.818-4.786a5.761,5.761,0,0,1-4.238-5.715c0-2.941,9.4-3.315,11.423-3.468S154.857,439.737,154.857,439.737Z" transform="translate(-88.668 -197.376)" fill="#fff" stroke="#263238" stroke-linecap="round" stroke-linejoin="round" stroke-width="1"/>
        <path id="Path_914" data-name="Path 914" d="M139.76,442.93a34.163,34.163,0,0,1,6.18,3.523c2.018,1.678,6.041,7.72,10.744,7.72a13.963,13.963,0,0,0,6.839-1.783,3.052,3.052,0,0,1-1.658,2.7c-2.58,1.47-6.631,1.1-11.049-1.658s-4.238-3.87-6.818-4.786A5.755,5.755,0,0,1,139.76,442.93Z" transform="translate(-88.677 -198.912)" fill="none" stroke="#263238" stroke-linecap="round" stroke-linejoin="round" stroke-width="1"/>
        <path id="Path_915" data-name="Path 915" d="M86.45,288.566s1.1,41.442,1.658,47.525S90.3,355.983,90.3,356.746s.916,31.316.916,31.316l-1.658,2.774.555,3.87,7.366,1.47c3.683.735,8.476,1.845,9.211,1.11s.922-2.213,1.29-4.238,1.1-5.715.368-8.656.922-34.263,1.11-35,4.425-30.99,4.425-30.99,2.774,24.872,4.786,32.418,1.29,18.789,2.025,23.208,2.213,19.344,2.4,20.447.548,2.774.548,2.774,9.211-1.29,10.869-2.032a35.627,35.627,0,0,1,5.16-1.47s.548-10.5-.187-14.739a59.65,59.65,0,0,1-.922-9.017c0-1.29.922-42.177.922-42.177l-.922-39.6s-24.865,2.58-34.444.735S86.637,286,86.637,286Z" transform="translate(-72.342 -150.827)" fill="#5a8af7" stroke="#263238" stroke-linecap="round" stroke-linejoin="round" stroke-width="1"/>
        <path id="Path_916" data-name="Path 916" d="M104.13,288.934C94.551,287.1,86.637,286,86.637,286l-.187,2.573s.062,2.379.166,6.069c4.39,1.228,13.31,3.385,21.931,3.385,9.114,0,23.631-2.774,30.164-4.1l-.139-5.722S113.708,290.779,104.13,288.934Z" transform="translate(-72.342 -150.827)" fill="#263238" stroke="#263238" stroke-linecap="round" stroke-linejoin="round" stroke-width="1"/>
        <path id="Path_917" data-name="Path 917" d="M158.07,424.79c.118,1.269.194,2,.194,2" transform="translate(-94.287 -193.354)" fill="none" stroke="#263238" stroke-linecap="round" stroke-linejoin="round" stroke-width="1"/>
        <path id="Path_918" data-name="Path 918" d="M154,303.72s.694,35.6.694,49.03c0,9.294,1.124,23.4,1.817,31.212" transform="translate(-93.04 -156.257)" fill="none" stroke="#263238" stroke-linecap="round" stroke-linejoin="round" stroke-width="1"/>
        <line id="Line_40" data-name="Line 40" x2="1.678" y2="38.619" transform="translate(23.679 145.452)" fill="none" stroke="#263238" stroke-linecap="round" stroke-linejoin="round" stroke-width="1"/>
        <line id="Line_41" data-name="Line 41" y2="6.381" transform="translate(25.018 187.088)" fill="none" stroke="#263238" stroke-linecap="round" stroke-linejoin="round" stroke-width="1"/>
        <path id="Path_919" data-name="Path 919" d="M103.764,149.353a5.708,5.708,0,0,0-4.626,2.407,32.786,32.786,0,0,1-3.815,4.217L78.85,164.82,80.459,227.7l.6,21.5s12.651,4.217,24.706,4.217,33.549-4.855,33.549-4.855-1.8-83.772-1.2-83.772-11.853-10.82-17.478-13.664S103.764,149.353,103.764,149.353Z" transform="translate(-70.014 -108.897)" fill="#5a8af7" stroke="#263238" stroke-linecap="round" stroke-linejoin="round" stroke-width="1"/>
        <path id="Path_920" data-name="Path 920" d="M108,160.4s6.381,11.756,9.072,17.132,7.713,13.109,7.713,13.109l8.4-22.5" transform="translate(-78.945 -112.342)" fill="none" stroke="#263238" stroke-linecap="round" stroke-linejoin="round" stroke-width="1"/>
        <path id="Path_921" data-name="Path 921" d="M106.282,263.277l-.326-9.384L87,252.79s.187,13.816.555,14.565" transform="translate(-72.511 -140.651)" fill="none" stroke="#263238" stroke-linecap="round" stroke-linejoin="round" stroke-width="1"/>
        <line id="Line_42" data-name="Line 42" x1="0.09" y1="2.636" transform="translate(33.91 126.635)" fill="none" stroke="#263238" stroke-linecap="round" stroke-linejoin="round" stroke-width="1"/>
        <path id="Path_922" data-name="Path 922" d="M147.285,267.142l-.555-15.467a21.206,21.206,0,0,0,12.159-3.135" transform="translate(-90.813 -139.349)" fill="none" stroke="#263238" stroke-linecap="round" stroke-linejoin="round" stroke-width="1"/>
        <path id="Path_923" data-name="Path 923" d="M106.465,197.982a3.067,3.067,0,1,0,1.824-4.259A3.289,3.289,0,0,0,106.465,197.982Z" transform="translate(-78.416 -122.514)" fill="none" stroke="#263238" stroke-linecap="round" stroke-linejoin="round" stroke-width="1"/>
        <path id="Path_924" data-name="Path 924" d="M106.614,153.52s-2.129,8.184,2.712,30.4" transform="translate(-78.378 -110.234)" fill="none" stroke="#263238" stroke-linecap="round" stroke-linejoin="round" stroke-width="2"/>
        <path id="Path_925" data-name="Path 925" d="M111.474,197.379a1.678,1.678,0,1,1-.992-2.344A1.81,1.81,0,0,1,111.474,197.379Z" transform="translate(-79.035 -122.93)" fill="none" stroke="#263238" stroke-linecap="round" stroke-linejoin="round" stroke-width="1"/>
        <path id="Path_926" data-name="Path 926" d="M162.607,170s3.01,2.213,3.211,3.017,10.445,25.309,10.445,25.309L161.4,200.518l.2-14.468" transform="translate(-95.308 -115.284)" fill="#5a8af7" stroke="#263238" stroke-linecap="round" stroke-linejoin="round" stroke-width="1"/>
        <path id="Path_927" data-name="Path 927" d="M76.958,170.58s-3.419.4-4.224,3.01-6.624,29.131-6.624,29.131L87.4,200.7,85.392,180.8" transform="translate(-66.11 -115.462)" fill="#5a8af7" stroke="#263238" stroke-linecap="round" stroke-linejoin="round" stroke-width="1"/>
        <path id="Path_928" data-name="Path 928" d="M141.05,151.72a13.248,13.248,0,0,1,5.8,10.5c.52,7.491,0,9.391,0,9.391" transform="translate(-89.072 -109.683)" fill="none" stroke="#263238" stroke-linecap="round" stroke-linejoin="round" stroke-width="2"/>
        <path id="Path_929" data-name="Path 929" d="M148.769,194.23s-.472,8.857-1.436,11.417-4.779,5.59-7.8,6.076" transform="translate(-88.607 -122.708)" fill="none" stroke="#263238" stroke-linecap="round" stroke-linejoin="round" stroke-width="1"/>
        <path id="Path_930" data-name="Path 930" d="M142.794,192.85s-.423,10.217-.465,12.117,1.873,5.209,4.619,8.379" transform="translate(-89.464 -122.285)" fill="none" stroke="#263238" stroke-linecap="round" stroke-linejoin="round" stroke-width="1"/>
        <rect id="Rectangle_906" data-name="Rectangle 906" width="1.866" height="2.379" rx="0.933" transform="translate(59.038 91.552) rotate(140.96)" fill="#263238"/>
        <rect id="Rectangle_907" data-name="Rectangle 907" width="1.866" height="2.379" rx="0.933" transform="translate(50.022 90.305) rotate(-100.73)" fill="#263238"/>
        <path id="Path_931" data-name="Path 931" d="M149.878,190.566l-.2-7.442a3.121,3.121,0,0,0-2.9-3.038h0a3.121,3.121,0,0,0-3.343,2.865l-.624,7.546" transform="translate(-89.612 -118.372)" fill="none" stroke="#263238" stroke-linecap="round" stroke-linejoin="round" stroke-width="2"/>
        <path id="Path_932" data-name="Path 932" d="M150.1,211.624l-4.793-1.006L128.43,207.81,104.765,203.3l-5.611-2.476s-5.306-6.936-5.764-7.629-6.457,1.727-6.242,2.65.922,10.14,1.387,10.723,5.646.576,5.646.576,24.72,11.93,25.746,12.367c14.267,6.013,21.148,5.958,23.582,6.353a5.5,5.5,0,0,0,5.424-2.2C150.334,222.056,150.1,211.624,150.1,211.624Z" transform="translate(-72.554 -122.353)" fill="#999" stroke="#263238" stroke-linecap="round" stroke-linejoin="round" stroke-width="1"/>
        <path id="Path_933" data-name="Path 933" d="M90.885,193.11s-2.878.118-7.144,3c-1.588,1.075-2.421,1.845-2.421,2.31a7.1,7.1,0,0,0,.465,1.609,44.39,44.39,0,0,1,8.642-3.107" transform="translate(-70.77 -122.365)" fill="#999" stroke="#263238" stroke-linecap="round" stroke-linejoin="round" stroke-width="1"/>
        <path id="Path_934" data-name="Path 934" d="M92.088,202.12s-7.831,1.956-9.1,2.192-1.5-1.04-1.5-1.5.347-1.158,1.727-1.845,8.323-2.539,8.323-2.539" transform="translate(-70.823 -123.995)" fill="#999" stroke="#263238" stroke-linecap="round" stroke-linejoin="round" stroke-width="1"/>
        <path id="Path_935" data-name="Path 935" d="M93.351,207.524s-9.107.922-9.8.347a2.226,2.226,0,0,1-.576-1.727l8.184-1.734" transform="translate(-71.274 -125.827)" fill="#999" stroke="#263238" stroke-linecap="round" stroke-linejoin="round" stroke-width="1"/>
        <path id="Path_936" data-name="Path 936" d="M91.176,209.56l-7.026.347s.34,1.04.694,1.151a30.8,30.8,0,0,0,5.07.811,23.847,23.847,0,0,1,3.343.347" transform="translate(-71.638 -127.405)" fill="#999" stroke="#263238" stroke-linecap="round" stroke-linejoin="round" stroke-width="1"/>
        <path id="Path_937" data-name="Path 937" d="M72.48,213.852s3.211,13.872,4.016,14.871,7.435,0,14.066-2.011,34.756-14.059,34.756-14.059l4.016.8s-1.609-5.022-4.418-5.223-35.56,4-35.56,4Z" transform="translate(-68.062 -126.995)" fill="#999" stroke="#263238" stroke-linecap="round" stroke-linejoin="round" stroke-width="1"/>
        <path id="Path_938" data-name="Path 938" d="M113,136.69v.8c.062,2.643.319,11.035.992,13.06.8,2.407,11.652,22.7,12.485,21.092s5.826-23.506,5.826-23.506v-8.635a12.086,12.086,0,0,1-7.435,2.206C120.047,141.712,113,136.69,113,136.69Z" transform="translate(-80.478 -105.077)" fill="#999" stroke="#263238" stroke-linecap="round" stroke-linejoin="round" stroke-width="1"/>
        <path id="Path_939" data-name="Path 939" d="M129.091,148.592a28.241,28.241,0,0,0,3.218-2.289v-6.8a12.086,12.086,0,0,1-7.435,2.206c-4.82,0-11.874-5.022-11.874-5.022v.8c0,.929.069,2.573.153,4.4a7.032,7.032,0,0,0,.638.867c1.387,1.6,8.032,5.625,9.641,6.027S127.281,149.591,129.091,148.592Z" transform="translate(-80.478 -105.077)" fill="#263238" stroke="#263238" stroke-linecap="round" stroke-linejoin="round" stroke-width="1"/>
        <path id="Path_940" data-name="Path 940" d="M147.79,119.678s3.211-1.81,3.211,1.609-3.01,7.435-3.01,7.435Z" transform="translate(-91.137 -99.718)" fill="#999" stroke="#263238" stroke-linecap="round" stroke-linejoin="round" stroke-width="1"/>
        <path id="Path_941" data-name="Path 941" d="M104.415,111.273s-4.425-1.207-4.425,2.816,4.023,6.624,4.023,6.624h2.774a26.521,26.521,0,0,0,3.017,5.625c1.408,1.6,8.032,5.625,9.641,6.027s3.815.8,5.625-.2a33.458,33.458,0,0,0,6.242-5.022c.8-1,2.213-7.831,2.213-7.831s.4-12.256-.4-16.473S127.1,91.991,119.861,91.187,105.8,96.208,104.8,100.828A39.2,39.2,0,0,0,104.415,111.273Z" transform="translate(-76.491 -91.112)" fill="#999" stroke="#263238" stroke-linecap="round" stroke-linejoin="round" stroke-width="1"/>
        <path id="Path_942" data-name="Path 942" d="M125.013,124.82s-1.387,2.809,1.006,3.614,5.424.6,6.027-.6a2.859,2.859,0,0,0-.4-2.608" transform="translate(-84.036 -101.44)" fill="none" stroke="#263238" stroke-linecap="round" stroke-linejoin="round" stroke-width="1"/>
        <path id="Path_943" data-name="Path 943" d="M121.72,132.06s5.022,4.217,11.853.2" transform="translate(-83.149 -103.659)" fill="none" stroke="#263238" stroke-linecap="round" stroke-linejoin="round" stroke-width="1"/>
        <path id="Path_944" data-name="Path 944" d="M125.77,137.382s4.224,2.414,7.033-.4" transform="translate(-84.39 -105.166)" fill="none" stroke="#263238" stroke-linecap="round" stroke-linejoin="round" stroke-width="1"/>
        <ellipse id="Ellipse_8" data-name="Ellipse 8" cx="1.006" cy="1.609" rx="1.006" ry="1.609" transform="translate(37.967 17.748)" fill="#263238"/>
        <path id="Path_945" data-name="Path 945" d="M137.051,118.022c0,.888-.451,1.609-1.006,1.609s-1.006-.694-1.006-1.609.451-1.6,1.006-1.6S137.051,117.134,137.051,118.022Z" transform="translate(-87.231 -98.866)" fill="#263238"/>
        <path id="Path_946" data-name="Path 946" d="M118.24,115.336s1.006-1.609,4.855-1.006" transform="translate(-82.083 -98.185)" fill="none" stroke="#263238" stroke-linecap="round" stroke-linejoin="round" stroke-width="1"/>
        <path id="Path_947" data-name="Path 947" d="M134.17,114.127s1.81-2.816,4.626,0" transform="translate(-86.964 -97.78)" fill="none" stroke="#263238" stroke-linecap="round" stroke-linejoin="round" stroke-width="1"/>
        <path id="Path_948" data-name="Path 948" d="M147.08,106.5a11.333,11.333,0,0,0-1.339-3.385,12.532,12.532,0,0,0-.243,3.385c.291,1.47,1.325,3.523,1.325,4.55s-.153,5.14.583,4.557a.9.9,0,0,0,.173-.264A61.608,61.608,0,0,0,147.08,106.5Z" transform="translate(-90.427 -94.791)" fill="#263238" stroke="#263238" stroke-linecap="round" stroke-linejoin="round" stroke-width="1"/>
        <path id="Path_949" data-name="Path 949" d="M124.922,94.518a28.72,28.72,0,0,0,3.842-.465,14.663,14.663,0,0,0-7.005-2.816c-7.234-.8-14.066,5.022-15.065,9.641a39.645,39.645,0,0,0-.4,10.445s1.6,1.11,2.185-.062,0-3.086.59-5.14,1.463-3.086,1.609-4.7-.881-3.96-.291-5.285,4.259-3.815,6.61-2.934A20.5,20.5,0,0,0,124.922,94.518Z" transform="translate(-78.368 -91.127)" fill="#263238" stroke="#263238" stroke-linecap="round" stroke-linejoin="round" stroke-width="1"/>
      </g>
    </g>
  </g>
</svg>
