<svg width="40" height="40" viewBox="0 0 40 40" fill="none" xmlns="http://www.w3.org/2000/svg">
      <rect width="40" height="40" rx="20" fill="#E2E8F0"/>
      <path d="M22 10V14C22 14.5304 22.2107 15.0391 22.5858 15.4142C22.9609 15.7893 23.4696 16 24 16H28M23 10H14C13.4696 10 12.9609 10.2107 12.5858 10.5858C12.2107 10.9609 12 11.4696 12 12V28C12 28.5304 12.2107 29.0391 12.5858 29.4142C12.9609 29.7893 13.4696 30 14 30H26C26.5304 30 27.0391 29.7893 27.4142 29.4142C27.7893 29.0391 28 28.5304 28 28V15L23 10Z" stroke="#475569" stroke-width="2" stroke-linecap="round" stroke-linejoin="round"/>
      <path d="M18.5265 25.1073C18.5265 25.4963 18.4119 25.7967 18.1825 26.0086C17.953 26.2205 17.6272 26.3265 17.2049 26.3265H16.9406V27.4815H16V24H17.205C17.6447 24 17.9749 24.0961 18.1956 24.2881C18.4162 24.4802 18.5265 24.7533 18.5265 25.1073ZM16.9406 25.5597H17.1121C17.2534 25.5597 17.3657 25.5201 17.4491 25.4407C17.5324 25.3613 17.5741 25.2517 17.5741 25.112C17.5741 24.8771 17.4439 24.7596 17.1836 24.7596H16.9406V25.5597Z" fill="#475569"/>
      <path d="M22.0363 25.6669C22.0363 26.2479 21.8763 26.6956 21.5564 27.01C21.2366 27.3243 20.7868 27.4815 20.2074 27.4815H19.0811V24H20.286C20.8448 24 21.2762 24.1429 21.5802 24.4286C21.8842 24.7144 22.0363 25.1272 22.0363 25.6669ZM21.06 25.7003C21.06 25.3812 20.9968 25.1447 20.8707 24.9906C20.7445 24.8366 20.5528 24.7597 20.2955 24.7597H20.0218V26.7099H20.2313C20.5171 26.7099 20.7266 26.627 20.86 26.461C20.9933 26.2952 21.06 26.0416 21.06 25.7003Z" fill="#475569"/>
      <path d="M23.5865 27.4815H22.6602V24H24.7177V24.7549H23.5865V25.4192H24.6295V26.1741H23.5865V27.4815Z" fill="#475569"/>
      <path d="M18.077 13.4418C17.8016 13.8761 18.0901 14.7082 18.2235 15.0894C18.3286 15.3899 18.4677 15.6795 18.6188 15.9592C18.7358 16.1798 18.8634 16.3905 18.9907 16.5977C19.0385 16.6737 19.0873 16.748 19.1361 16.8223C19.0964 16.9468 19.0526 17.07 19.0055 17.1918C18.699 17.9705 18.2676 18.6984 17.773 19.3686C17.4077 19.4583 17.0375 19.5721 16.6685 19.7191C15.9951 19.9875 15.2591 20.3517 14.7828 20.915C14.6184 21.1094 14.4823 21.4649 14.7447 21.6491C15.0465 21.8608 15.5024 21.7203 15.8073 21.5866C16.0536 21.4784 16.2831 21.3375 16.4939 21.1728C16.7058 21.0064 16.8927 20.8218 17.0761 20.6317C17.2437 20.4561 17.4061 20.2747 17.5631 20.0877C17.7474 20.0533 17.9307 20.0235 18.1115 19.9985C18.5251 19.9444 18.9272 19.9103 19.3141 19.8774C19.5082 19.8653 19.6982 19.8535 19.884 19.842C20.4788 19.8021 21.0748 19.7854 21.6707 19.8061C22.2216 20.3065 22.7731 20.7248 23.3182 21.0252C23.611 21.1862 23.9019 21.311 24.1899 21.3903C24.4619 21.4651 24.7887 21.514 25.0548 21.3903C25.205 21.3204 25.3151 21.1867 25.3372 21.0209C25.3714 20.7909 25.2461 20.578 25.1037 20.4093C24.6371 19.8566 23.8436 19.6667 23.1725 19.5025C22.7102 19.3894 22.1432 19.2828 21.4855 19.2059C21.484 19.2058 21.4825 19.2057 21.481 19.2055C20.9944 18.728 20.5081 18.1851 20.041 17.5824C19.8279 17.307 19.6195 17.0186 19.42 16.7175C19.5086 16.3824 19.5688 16.0394 19.5859 15.6914C19.6015 15.4191 19.5905 15.1444 19.5471 14.8741C19.4982 14.6034 19.4348 14.3387 19.3448 14.0787C19.297 13.9486 19.2383 13.8209 19.1656 13.6973C19.0032 13.4215 18.6774 13.0756 18.3215 13.2332C18.2126 13.2814 18.1331 13.3534 18.077 13.4418ZM22.3365 19.8445C22.6119 19.8662 22.8641 19.8944 23.0904 19.9271C23.6478 20.0054 24.3028 20.085 24.7416 20.4747C24.825 20.5487 24.9252 20.6513 24.9866 20.7833C25.0413 20.9008 25.0515 21.0402 24.9194 21.1048C24.8503 21.1387 24.746 21.1522 24.6338 21.1471C24.5107 21.1416 24.3882 21.1187 24.2695 21.0864C24.0155 21.0171 23.7438 20.9027 23.4678 20.7515C23.0443 20.5196 22.6067 20.2061 22.1651 19.8317C22.223 19.8357 22.2806 19.8399 22.3365 19.8445ZM16.3219 20.9503C16.128 21.102 15.9143 21.2243 15.6939 21.3141C15.5837 21.359 15.4706 21.3926 15.3588 21.4132C15.2639 21.4308 15.0363 21.4809 14.9627 21.405C14.8412 21.2798 15.1339 21.0635 15.2147 20.9984C15.6738 20.6281 16.2867 20.406 16.8489 20.2504C16.9384 20.2257 17.0277 20.2037 17.1169 20.1823C17.0386 20.2702 16.9592 20.3565 16.8778 20.4405C16.6995 20.6229 16.5157 20.8009 16.3219 20.9503ZM19.8048 17.7643C20.194 18.2709 20.5964 18.7354 21.0031 19.1567C20.9541 19.106 20.2894 19.1118 20.1491 19.1088C19.4889 19.0942 18.8318 19.1454 18.1843 19.2766C18.6129 18.6612 18.9817 17.9959 19.244 17.2813C19.2675 17.2158 19.2901 17.15 19.3117 17.0838C19.4727 17.3182 19.6373 17.5456 19.8048 17.7643ZM18.4927 13.6273C18.6134 13.5885 18.8024 13.7891 18.8787 13.8891C19.1037 14.1849 19.2473 14.5488 19.3101 14.9141C19.3532 15.1647 19.3665 15.4217 19.3546 15.6791C19.342 15.9354 19.3021 16.1903 19.2417 16.4411C19.1168 16.2393 18.9949 16.0327 18.8846 15.8185C18.7724 15.6053 18.668 15.3858 18.5817 15.1599C18.4125 14.7403 18.3094 14.2235 18.3983 13.7735C18.4159 13.6848 18.4501 13.6411 18.4927 13.6273Z" fill="#475569"/>
      </svg>