<svg width="24" height="24" viewBox="0 0 24 24" fill="none" xmlns="http://www.w3.org/2000/svg">
<g id="lucide/camera">
<g id="Vector">
<path d="M14.502 4H9.50195L7.00195 7H4.00195C3.47152 7 2.96281 7.21071 2.58774 7.58579C2.21267 7.96086 2.00195 8.46957 2.00195 9V18C2.00195 18.5304 2.21267 19.0391 2.58774 19.4142C2.96281 19.7893 3.47152 20 4.00195 20H20.002C20.5324 20 21.0411 19.7893 21.4162 19.4142C21.7912 19.0391 22.002 18.5304 22.002 18V9C22.002 8.46957 21.7912 7.96086 21.4162 7.58579C21.0411 7.21071 20.5324 7 20.002 7H17.002L14.502 4Z" stroke="#EE473F" stroke-width="2" stroke-linecap="round" stroke-linejoin="round"/>
<path d="M12.002 16C13.6588 16 15.002 14.6569 15.002 13C15.002 11.3431 13.6588 10 12.002 10C10.3451 10 9.00195 11.3431 9.00195 13C9.00195 14.6569 10.3451 16 12.002 16Z" stroke="#EE473F" stroke-width="2" stroke-linecap="round" stroke-linejoin="round"/>
</g>
</g>
</svg>
