<svg xmlns="http://www.w3.org/2000/svg" xmlns:xlink="http://www.w3.org/1999/xlink" width="512" height="512" viewBox="0 0 512 512">
  <defs>
    <clipPath id="clip-groups_2">
      <rect width="512" height="512"/>
    </clipPath>
  </defs>
  <g id="groups_2" data-name="groups – 2" clip-path="url(#clip-groups_2)">
    <circle id="Ellipse_212" data-name="Ellipse 212" cx="255.5" cy="255.5" r="255.5" transform="translate(0 1)" fill="rgba(33,194,98,0.15)"/>
    <path id="Icon_awesome-check" data-name="Icon awesome-check" d="M96.424,212.128,4.157,119.86a14.2,14.2,0,0,1,0-20.075L24.232,79.71a14.194,14.194,0,0,1,20.075,0l62.156,62.156L239.592,8.735a14.2,14.2,0,0,1,20.075,0L279.741,28.81a14.2,14.2,0,0,1,0,20.075L116.5,212.128A14.2,14.2,0,0,1,96.424,212.128Z" transform="translate(114 146.422)" fill="#21c262"/>
  </g>
</svg>
