<svg xmlns="http://www.w3.org/2000/svg" xmlns:xlink="http://www.w3.org/1999/xlink" width="512" height="512" viewBox="0 0 512 512">
  <defs>
    <clipPath id="clip-groups">
      <rect width="512" height="512"/>
    </clipPath>
  </defs>
  <g id="groups" clip-path="url(#clip-groups)">
    <path id="Icon_material-people" data-name="Icon material-people" d="M333.545,145.319c36.746,0,66.188-30.78,66.188-68.91S370.292,7.5,333.545,7.5s-66.409,30.78-66.409,68.91S296.8,145.319,333.545,145.319Zm-177.091,0c36.746,0,66.188-30.78,66.188-68.91S193.2,7.5,156.455,7.5,90.045,38.28,90.045,76.41,119.708,145.319,156.455,145.319Zm0,45.94C104.877,191.259,1.5,218.134,1.5,271.653v57.425H311.409V271.653C311.409,218.134,208.032,191.259,156.455,191.259Zm177.091,0c-6.42,0-13.725.459-21.472,1.148,25.678,19.295,43.609,45.251,43.609,79.246v57.425H488.5V271.653C488.5,218.134,385.123,191.259,333.545,191.259Z" transform="translate(11 87.711)" fill="#2c9c55"/>
  </g>
</svg>
