<svg xmlns="http://www.w3.org/2000/svg" xmlns:xlink="http://www.w3.org/1999/xlink" width="512" height="512" viewBox="0 0 512 512">
  <defs>
    <clipPath id="clip-groups_4">
      <rect width="512" height="512"/>
    </clipPath>
  </defs>
  <g id="groups_4" data-name="groups – 4" clip-path="url(#clip-groups_4)">
    <circle id="Ellipse_208" data-name="Ellipse 208" cx="255.5" cy="255.5" r="255.5" transform="translate(1 1)" fill="rgba(0,198,255,0.15)"/>
    <path id="Icon_awesome-arrow-up" data-name="Icon awesome-arrow-up" d="M15.319,133.632,3.994,122.307a12.193,12.193,0,0,1,0-17.294l99.119-99.17a12.193,12.193,0,0,1,17.294,0l99.119,99.119a12.193,12.193,0,0,1,0,17.294L208.2,133.581a12.257,12.257,0,0,1-17.5-.2l-58.513-61.42V218.569a12.214,12.214,0,0,1-12.243,12.243H103.623A12.214,12.214,0,0,1,91.38,218.569V71.956L32.816,133.428a12.169,12.169,0,0,1-17.5.2Z" transform="translate(144.602 139.755)" fill="#0093be"/>
  </g>
</svg>
