<svg xmlns="http://www.w3.org/2000/svg" xmlns:xlink="http://www.w3.org/1999/xlink" width="512" height="512" viewBox="0 0 512 512">
  <defs>
    <clipPath id="clip-groups_5">
      <rect width="512" height="512"/>
    </clipPath>
  </defs>
  <g id="groups_5" data-name="groups – 5" clip-path="url(#clip-groups_5)">
    <circle id="Ellipse_215" data-name="Ellipse 215" cx="255.5" cy="255.5" r="255.5" transform="translate(1 1)" fill="#c2c2c2"/>
    <path id="Icon_awesome-arrow-up" data-name="Icon awesome-arrow-up" d="M15.319,99.432,3.994,110.757a12.193,12.193,0,0,0,0,17.294l99.124,99.175a12.193,12.193,0,0,0,17.294,0L219.536,128.1a12.193,12.193,0,0,0,0-17.294L208.21,99.483a12.258,12.258,0,0,0-17.5.2L132.2,161.11V14.49A12.214,12.214,0,0,0,119.953,2.246H103.628A12.214,12.214,0,0,0,91.384,14.49V161.11L32.818,99.636a12.169,12.169,0,0,0-17.5-.2Z" transform="translate(144.602 139.753)" fill="#3a3a3a"/>
  </g>
</svg>
