<svg width="40" height="40" viewBox="0 0 40 40" fill="none" xmlns="http://www.w3.org/2000/svg">
<g id="lucide-mic">
<path id="Vector" d="M31.6634 16.6673V20.0007C31.6634 23.0948 30.4342 26.0623 28.2463 28.2502C26.0584 30.4382 23.0909 31.6673 19.9967 31.6673M19.9967 31.6673C16.9026 31.6673 13.9351 30.4382 11.7472 28.2502C9.55924 26.0623 8.33008 23.0948 8.33008 20.0007V16.6673M19.9967 31.6673V36.6673M19.9967 3.33398C18.6707 3.33398 17.3989 3.86077 16.4612 4.79845C15.5235 5.73613 14.9967 7.0079 14.9967 8.33398V20.0007C14.9967 21.3267 15.5235 22.5985 16.4612 23.5362C17.3989 24.4739 18.6707 25.0007 19.9967 25.0007C21.3228 25.0007 22.5946 24.4739 23.5323 23.5362C24.47 22.5985 24.9967 21.3267 24.9967 20.0007V8.33398C24.9967 7.0079 24.47 5.73613 23.5323 4.79845C22.5946 3.86077 21.3228 3.33398 19.9967 3.33398Z" stroke="#00A10D" stroke-width="3.33333" stroke-linecap="round" stroke-linejoin="round"/>
</g>
</svg>
