<svg xmlns="http://www.w3.org/2000/svg" xmlns:xlink="http://www.w3.org/1999/xlink" width="512" height="512" viewBox="0 0 512 512">
  <defs>
    <clipPath id="clip-subject">
      <rect width="512" height="512"/>
    </clipPath>
  </defs>
  <g id="subject" clip-path="url(#clip-subject)">
    <path id="Icon_awesome-book-open" data-name="Icon awesome-book-open" d="M458.447,2.309C412.114,5.689,320.022,17.995,263.171,62.738c-3.923,3.087-6.147,8.577-6.147,14.316V472.6c0,12.555,10.679,20.491,19.683,14.664,58.492-37.851,143.084-48.178,184.911-51C475.9,435.291,487,420.572,487,402.93V35.681c.008-19.252-12.978-34.5-28.553-33.372ZM223.829,62.738C166.986,17.995,74.894,5.7,28.561,2.309,12.987,1.178,0,16.429,0,35.681V402.94c0,17.654,11.1,32.372,25.382,33.329,41.844,2.826,126.478,13.164,184.97,51.037,8.979,5.816,19.624-2.109,19.624-14.632V76.858C229.976,71.108,227.761,65.836,223.829,62.738Z" transform="translate(12.5 10.25)" fill="#b44677"/>
  </g>
</svg>
